<svg width="186" height="57" viewBox="0 0 186 57" fill="none" xmlns="http://www.w3.org/2000/svg">
<path d="M0.919878 2H13.0159C15.1065 2 17.0292 2.168 18.7839 2.504C20.5759 2.84 22.1065 3.36266 23.3759 4.072C24.6825 4.744 25.6905 5.62133 26.3999 6.704C27.1465 7.74933 27.5199 9.01867 27.5199 10.512C27.5199 11.856 27.2212 13.088 26.6239 14.208C26.0639 15.2907 25.3172 16.2987 24.3839 17.232C23.4505 18.128 22.3865 18.9867 21.1919 19.808C19.9972 20.6293 18.7652 21.432 17.4959 22.216C19.5865 22.3653 21.4719 22.72 23.1519 23.28C24.8692 23.84 26.3252 24.568 27.5199 25.464C28.7145 26.36 29.6479 27.4053 30.3199 28.6C30.9919 29.7573 31.3279 31.064 31.3279 32.52C31.3279 34.088 30.9359 35.5813 30.1519 37C29.3679 38.3813 28.2665 39.5947 26.8479 40.64C25.4665 41.6853 23.7865 42.5067 21.8079 43.104C19.8292 43.7013 17.6265 44 15.1999 44H0.919878V2ZM7.13588 2.84V30.168C7.65855 29.048 8.36788 27.984 9.26388 26.976C10.1599 25.968 11.1119 24.9973 12.1199 24.064C13.1652 23.0933 14.2105 22.1227 15.2559 21.152C16.3012 20.1813 17.2345 19.1733 18.0559 18.128C18.9145 17.0827 19.6052 15.9813 20.1279 14.824C20.6879 13.6667 20.9679 12.416 20.9679 11.072C20.9679 9.392 20.7252 8.02933 20.2399 6.984C19.7919 5.90133 19.1572 5.06133 18.3359 4.464C17.5145 3.82933 16.5439 3.4 15.4239 3.176C14.3412 2.952 13.1652 2.84 11.8959 2.84H7.13588ZM24.8319 32.52C24.8319 30.7653 24.6265 29.2907 24.2159 28.096C23.8425 26.9013 23.2825 25.9307 22.5359 25.184C21.8265 24.4373 20.9679 23.8773 19.9599 23.504C18.9519 23.0933 17.8505 22.832 16.6559 22.72C15.4239 23.504 14.2292 24.288 13.0719 25.072C11.9519 25.856 10.9439 26.696 10.0479 27.592C9.18921 28.488 8.47988 29.4587 7.91988 30.504C7.39721 31.512 7.13588 32.6507 7.13588 33.92V43.104H14.1919C15.6479 43.104 17.0292 42.936 18.3359 42.6C19.6425 42.2267 20.7625 41.6293 21.6959 40.808C22.6665 39.9867 23.4319 38.904 23.9919 37.56C24.5519 36.216 24.8319 34.536 24.8319 32.52ZM36.3508 1.608L42.1188 0.207996V44H36.3508V1.608ZM66.7811 15.16H72.5491V43.048L66.7811 44.504V34.648C66.1091 37.6347 64.9705 40.024 63.3651 41.816C61.7598 43.608 59.6691 44.504 57.0931 44.504C55.9358 44.504 54.8718 44.336 53.9011 44C52.9678 43.664 52.1651 43.104 51.4931 42.32C50.8211 41.536 50.2985 40.5093 49.9251 39.24C49.5891 37.9707 49.4211 36.4027 49.4211 34.536V15.104H55.1891V36.104C55.1891 38.456 55.5065 40.192 56.1411 41.312C56.8131 42.3947 57.9331 42.936 59.5011 42.936C60.6585 42.936 61.6851 42.544 62.5811 41.76C63.4771 40.976 64.2238 39.9307 64.8211 38.624C65.4558 37.28 65.9411 35.768 66.2771 34.088C66.6131 32.3707 66.7811 30.5973 66.7811 28.768V15.16ZM82.5154 19.08C82.5154 20.312 82.9634 21.376 83.8594 22.272C84.7554 23.1307 85.8754 23.9333 87.2194 24.68C88.5634 25.3893 90.0007 26.0987 91.5314 26.808C93.0994 27.48 94.5554 28.2453 95.8994 29.104C97.2434 29.9253 98.3634 30.8773 99.2594 31.96C100.155 33.0427 100.603 34.368 100.603 35.936C100.603 38.736 99.67 40.8453 97.8034 42.264C95.974 43.6453 93.342 44.336 89.9074 44.336C87.4807 44.336 85.446 44.0747 83.8034 43.552C82.1607 43.0293 80.8354 42.3573 79.8274 41.536C78.8567 40.6773 78.2034 39.7253 77.8674 38.68C77.5314 37.6347 77.4754 36.5893 77.6994 35.544C77.9607 34.4987 78.4647 33.528 79.2114 32.632C79.958 31.736 80.9287 30.9893 82.1234 30.392L82.4034 30.728C81.47 32.1093 81.1527 33.5467 81.4514 35.04C81.75 36.496 82.4407 37.84 83.5234 39.072C84.606 40.304 85.95 41.312 87.5554 42.096C89.198 42.88 90.878 43.272 92.5954 43.272C93.2674 43.272 93.958 43.1973 94.6674 43.048C95.414 42.8987 96.0674 42.656 96.6274 42.32C97.2247 41.984 97.71 41.536 98.0834 40.976C98.494 40.416 98.6994 39.7253 98.6994 38.904C98.6994 37.9333 98.1954 37.0747 97.1874 36.328C96.2167 35.5813 94.9847 34.8533 93.4914 34.144C92.0354 33.4347 90.43 32.7253 88.6754 32.016C86.958 31.2693 85.3527 30.448 83.8594 29.552C82.4034 28.6187 81.1714 27.592 80.1634 26.472C79.1927 25.3147 78.7074 23.952 78.7074 22.384C78.7074 19.9947 79.6967 18.0907 81.6754 16.672C83.6914 15.2533 86.454 14.544 89.9634 14.544C91.046 14.544 92.1474 14.6747 93.2674 14.936C94.4247 15.1973 95.47 15.608 96.4034 16.168C97.374 16.6907 98.158 17.344 98.7554 18.128C99.3527 18.912 99.6514 19.808 99.6514 20.816C99.6514 23.3547 98.1394 25.4453 95.1154 27.088L94.7234 26.752C95.5074 25.5573 95.8247 24.3067 95.6754 23C95.526 21.656 95.0594 20.4053 94.2754 19.248C93.4914 18.0907 92.4647 17.1387 91.1954 16.392C89.9634 15.6453 88.638 15.272 87.2194 15.272C85.9874 15.272 84.886 15.5707 83.9154 16.168C82.982 16.728 82.5154 17.6987 82.5154 19.08ZM123.947 44V22.944C123.947 20.592 123.611 18.8747 122.939 17.792C122.304 16.672 121.203 16.112 119.635 16.112C118.477 16.112 117.413 16.504 116.443 17.288C115.472 18.072 114.632 19.1173 113.923 20.424C113.213 21.7307 112.653 23.2427 112.243 24.96C111.832 26.64 111.627 28.4133 111.627 30.28V44H105.859V1.608L111.627 0.151997V24.848C112.373 21.7493 113.624 19.2667 115.379 17.4C117.171 15.496 119.411 14.544 122.099 14.544C123.256 14.544 124.301 14.712 125.235 15.048C126.168 15.384 126.971 15.944 127.643 16.728C128.315 17.512 128.819 18.5387 129.155 19.808C129.528 21.0773 129.715 22.6453 129.715 24.512V44H123.947ZM137.031 1.608L142.799 0.207996V44H137.031V1.608ZM150.101 1.608L155.869 0.207996V44H150.101V1.608ZM172.355 49.264C171.272 51.9147 170.04 53.7813 168.659 54.864C167.278 55.9467 165.654 56.488 163.787 56.488C162.779 56.488 161.92 56.2827 161.211 55.872C160.539 55.4987 159.979 54.9947 159.531 54.36C159.083 53.7627 158.766 53.0907 158.579 52.344C158.392 51.6347 158.299 50.9253 158.299 50.216L158.579 50.104C158.878 50.8507 159.419 51.4107 160.203 51.784C161.024 52.1947 161.976 52.4 163.059 52.4C163.955 52.4 164.907 52.232 165.915 51.896C166.96 51.5973 167.95 51.112 168.883 50.44C169.854 49.768 170.75 48.8907 171.571 47.808C172.43 46.7627 173.139 45.512 173.699 44.056H170.899L160.091 15.104H166.307L175.379 39.52L184.507 15.104H185.123L172.355 49.264Z" fill="#1D1A1A"/>
<path d="M0.919878 2V1.5H0.419878V2H0.919878ZM18.7839 2.504L18.6898 2.99508L18.6917 2.99543L18.7839 2.504ZM23.3759 4.072L23.132 4.50847L23.1395 4.51269L23.1472 4.51664L23.3759 4.072ZM26.3999 6.704L25.9816 6.97801L25.9872 6.98643L25.993 6.99462L26.3999 6.704ZM26.6239 14.208L26.1827 13.9727L26.1798 13.9783L26.6239 14.208ZM24.3839 17.232L24.7302 17.5928L24.7374 17.5856L24.3839 17.232ZM21.1919 19.808L21.4751 20.22L21.1919 19.808ZM17.4959 22.216L17.2331 21.7906L15.9156 22.6044L17.4603 22.7147L17.4959 22.216ZM23.1519 23.28L22.9938 23.7544L22.9969 23.7554L23.1519 23.28ZM27.5199 25.464L27.8199 25.064L27.5199 25.464ZM30.3199 28.6L29.8841 28.8452L29.8875 28.8511L30.3199 28.6ZM30.1519 37L30.5868 37.2468L30.5895 37.2418L30.1519 37ZM26.8479 40.64L26.5513 40.2374L26.5462 40.2413L26.8479 40.64ZM0.919878 44H0.419878V44.5H0.919878V44ZM7.13588 2.84V2.34H6.63588V2.84H7.13588ZM7.13588 30.168H6.63588L7.58897 30.3794L7.13588 30.168ZM12.1199 24.064L12.4596 24.4309L12.4601 24.4304L12.1199 24.064ZM18.0559 18.128L17.6694 17.8106L17.6627 17.8191L18.0559 18.128ZM20.1279 14.824L19.6776 14.6061L19.6722 14.6182L20.1279 14.824ZM20.2399 6.984L19.7779 7.17517L19.7819 7.18495L19.7864 7.19456L20.2399 6.984ZM18.3359 4.464L18.0302 4.85964L18.0359 4.86409L18.0418 4.86837L18.3359 4.464ZM15.4239 3.176L15.3226 3.66564L15.3258 3.66629L15.4239 3.176ZM24.2159 28.096L23.7384 28.2452L23.743 28.2585L24.2159 28.096ZM22.5359 25.184L22.1733 25.5285L22.1823 25.5376L22.5359 25.184ZM19.9599 23.504L19.7712 23.967L19.7787 23.9701L19.7862 23.9729L19.9599 23.504ZM16.6559 22.72L16.7025 22.2222L16.532 22.2062L16.3874 22.2982L16.6559 22.72ZM13.0719 25.072L12.7914 24.658L12.7851 24.6624L13.0719 25.072ZM10.0479 27.592L9.69425 27.2384L9.68688 27.246L10.0479 27.592ZM7.91988 30.504L7.4791 30.2679L7.476 30.2738L7.91988 30.504ZM7.13588 43.104H6.63588V43.604H7.13588V43.104ZM18.3359 42.6L18.4604 43.0844L18.4732 43.0808L18.3359 42.6ZM21.6959 40.808L21.3728 40.4262L21.3656 40.4326L21.6959 40.808ZM23.9919 37.56L24.4534 37.7523L23.9919 37.56ZM0.919878 2.5H13.0159V1.5H0.919878V2.5ZM13.0159 2.5C15.0802 2.5 16.9709 2.66591 18.6898 2.99507L18.8779 2.01292C17.0876 1.67008 15.1329 1.5 13.0159 1.5V2.5ZM18.6917 2.99543C20.4434 3.32387 21.9202 3.83128 23.132 4.50847L23.6198 3.63552C22.2929 2.89404 20.7083 2.35612 18.876 2.01256L18.6917 2.99543ZM23.1472 4.51664C24.3876 5.15454 25.3258 5.97698 25.9816 6.97801L26.8181 6.42999C26.0553 5.26569 24.9775 4.33346 23.6046 3.62735L23.1472 4.51664ZM25.993 6.99462C26.6697 7.94195 27.0199 9.10539 27.0199 10.512H28.0199C28.0199 8.93194 27.6234 7.55671 26.8067 6.41338L25.993 6.99462ZM27.0199 10.512C27.0199 11.7789 26.7391 12.9294 26.1827 13.9727L27.0651 14.4433C27.7033 13.2466 28.0199 11.9331 28.0199 10.512H27.0199ZM26.1798 13.9783C25.6453 15.0116 24.9303 15.9785 24.0303 16.8784L24.7374 17.5856C25.7041 16.6188 26.4825 15.5697 27.068 14.4377L26.1798 13.9783ZM24.0376 16.8713C23.126 17.7464 22.0835 18.5882 20.9086 19.396L21.4751 20.22C22.6895 19.3851 23.7751 18.5096 24.7301 17.5927L24.0376 16.8713ZM20.9086 19.396C19.7209 20.2126 18.4957 21.0108 17.2331 21.7906L17.7586 22.6414C19.0347 21.8532 20.2736 21.0461 21.4751 20.22L20.9086 19.396ZM17.4603 22.7147C19.5166 22.8616 21.3599 23.2097 22.9938 23.7543L23.31 22.8057C21.5839 22.2303 19.6565 21.8691 17.5315 21.7173L17.4603 22.7147ZM22.9969 23.7554C24.6726 24.3018 26.0772 25.007 27.2199 25.864L27.8199 25.064C26.5733 24.129 25.0658 23.3782 23.3069 22.8046L22.9969 23.7554ZM27.2199 25.864C28.364 26.7221 29.2491 27.7162 29.8841 28.8451L30.7557 28.3549C30.0467 27.0945 29.065 25.9979 27.8199 25.064L27.2199 25.864ZM29.8875 28.8511C30.5114 29.9255 30.8279 31.1442 30.8279 32.52H31.8279C31.8279 30.9838 31.4724 29.5892 30.7523 28.3489L29.8875 28.8511ZM30.8279 32.52C30.8279 34.0005 30.4588 35.4109 29.7143 36.7582L30.5895 37.2418C31.413 35.7517 31.8279 34.1755 31.8279 32.52H30.8279ZM29.717 36.7532C28.9713 38.0671 27.9197 39.2292 26.5513 40.2375L27.1445 41.0425C28.6134 39.9601 29.7645 38.6955 30.5867 37.2468L29.717 36.7532ZM26.5462 40.2413C25.2202 41.2447 23.596 42.0419 21.6634 42.6253L21.9524 43.5827C23.9771 42.9714 25.7129 42.126 27.1496 41.0387L26.5462 40.2413ZM21.6634 42.6253C19.7389 43.2063 17.5859 43.5 15.1999 43.5V44.5C17.6672 44.5 19.9195 44.1964 21.9524 43.5827L21.6634 42.6253ZM15.1999 43.5H0.919878V44.5H15.1999V43.5ZM1.41988 44V2H0.419878V44H1.41988ZM6.63588 2.84V30.168H7.63588V2.84H6.63588ZM7.58897 30.3794C8.08939 29.3071 8.77084 28.2833 9.63758 27.3082L8.89017 26.6438C7.96492 27.6847 7.22771 28.7889 6.68279 29.9566L7.58897 30.3794ZM9.63758 27.3082C10.5226 26.3125 11.4633 25.3534 12.4596 24.4309L11.7802 23.6971C10.7605 24.6413 9.79714 25.6235 8.89017 26.6438L9.63758 27.3082ZM12.4601 24.4304C13.5054 23.4597 14.5508 22.4891 15.5961 21.5184L14.9157 20.7856C13.8703 21.7563 12.825 22.7269 11.7797 23.6976L12.4601 24.4304ZM15.5961 21.5184C16.6592 20.5313 17.6105 19.5042 18.449 18.4369L17.6627 17.8191C16.8586 18.8425 15.9432 19.8314 14.9157 20.7856L15.5961 21.5184ZM18.4422 18.4454C19.327 17.3683 20.0417 16.2297 20.5836 15.0298L19.6722 14.6182C19.1688 15.7329 18.5021 16.7971 17.6695 17.8106L18.4422 18.4454ZM20.578 15.0418C21.1723 13.8135 21.4679 12.4879 21.4679 11.072H20.4679C20.4679 12.3441 20.2034 13.5199 19.6778 14.6062L20.578 15.0418ZM21.4679 11.072C21.4679 9.34993 21.2201 7.90782 20.6934 6.77344L19.7864 7.19456C20.2304 8.15084 20.4679 9.43407 20.4679 11.072H21.4679ZM20.7019 6.79282C20.2242 5.63831 19.5367 4.71909 18.63 4.05963L18.0418 4.86837C18.7777 5.40357 19.3596 6.16435 19.7779 7.17517L20.7019 6.79282ZM18.6416 4.06836C17.7533 3.38197 16.7098 2.92329 15.5219 2.68571L15.3258 3.66629C16.3779 3.87671 17.2757 4.27669 18.0302 4.85964L18.6416 4.06836ZM15.5252 2.68637C14.4047 2.45455 13.1944 2.34 11.8959 2.34V3.34C13.1361 3.34 14.2777 3.44945 15.3226 3.66563L15.5252 2.68637ZM11.8959 2.34H7.13588V3.34H11.8959V2.34ZM25.3319 32.52C25.3319 30.7299 25.1229 29.1964 24.6887 27.9335L23.743 28.2585C24.1302 29.3849 24.3319 30.8008 24.3319 32.52H25.3319ZM24.6931 27.9469C24.3001 26.6893 23.7029 25.644 22.8894 24.8304L22.1823 25.5376C22.8622 26.2174 23.385 27.1134 23.7386 28.2451L24.6931 27.9469ZM22.8984 24.8396C22.1341 24.0351 21.2099 23.4338 20.1335 23.0351L19.7862 23.9729C20.7258 24.3209 21.519 24.8395 22.1734 25.5284L22.8984 24.8396ZM20.1485 23.041C19.0908 22.61 17.941 22.3383 16.7025 22.2222L16.6092 23.2178C17.76 23.3257 18.813 23.5766 19.7712 23.967L20.1485 23.041ZM16.3874 22.2982C15.1516 23.0846 13.9529 23.8712 12.7915 24.658L13.3523 25.486C14.5055 24.7048 15.6962 23.9234 16.9243 23.1418L16.3874 22.2982ZM12.7851 24.6624C11.6431 25.4618 10.6125 26.3203 9.69433 27.2384L10.4014 27.9456C11.2753 27.0717 12.2606 26.2502 13.3586 25.4816L12.7851 24.6624ZM9.68688 27.246C8.79823 28.1733 8.06158 29.1807 7.47914 30.2679L8.36062 30.7401C8.89818 29.7367 9.58019 28.8027 10.4089 27.938L9.68688 27.246ZM7.476 30.2738C6.91229 31.361 6.63588 32.5801 6.63588 33.92H7.63588C7.63588 32.7212 7.88213 31.663 8.36376 30.7342L7.476 30.2738ZM6.63588 33.92V43.104H7.63588V33.92H6.63588ZM7.13588 43.604H14.1919V42.604H7.13588V43.604ZM14.1919 43.604C15.6866 43.604 17.11 43.4315 18.4604 43.0842L18.2114 42.1158C16.9484 42.4405 15.6092 42.604 14.1919 42.604V43.604ZM18.4732 43.0808C19.8445 42.689 21.0321 42.0581 22.0262 41.1834L21.3656 40.4326C20.493 41.2005 19.4406 41.7644 18.1985 42.1192L18.4732 43.0808ZM22.0189 41.1897C23.0583 40.3101 23.8674 39.1589 24.4534 37.7523L23.5303 37.3677C22.9964 38.6492 22.2748 39.6632 21.3729 40.4263L22.0189 41.1897ZM24.4534 37.7523C25.0466 36.3288 25.3319 34.5783 25.3319 32.52H24.3319C24.3319 34.4937 24.0572 36.1032 23.5303 37.3677L24.4534 37.7523ZM36.3508 1.608L36.2329 1.12211L35.8508 1.21484V1.608H36.3508ZM42.1188 0.207996H42.6188V-0.42788L42.0009 -0.277896L42.1188 0.207996ZM42.1188 44V44.5H42.6188V44H42.1188ZM36.3508 44H35.8508V44.5H36.3508V44ZM36.4688 2.09389L42.2368 0.693889L42.0009 -0.277896L36.2329 1.12211L36.4688 2.09389ZM41.6188 0.207996V44H42.6188V0.207996H41.6188ZM42.1188 43.5H36.3508V44.5H42.1188V43.5ZM36.8508 44V1.608H35.8508V44H36.8508ZM66.7811 15.16V14.66H66.2811V15.16H66.7811ZM72.5491 15.16H73.0491V14.66H72.5491V15.16ZM72.5491 43.048L72.6715 43.5328L73.0491 43.4375V43.048H72.5491ZM66.7811 44.504H66.2811V45.1459L66.9035 44.9888L66.7811 44.504ZM66.7811 34.648H67.2811L66.2933 34.5382L66.7811 34.648ZM63.3651 41.816L62.9927 41.4824L63.3651 41.816ZM53.9011 44L53.7318 44.4705L53.7376 44.4725L53.9011 44ZM51.4931 42.32L51.1135 42.6454L51.4931 42.32ZM49.9251 39.24L49.4416 39.368L49.4454 39.3811L49.9251 39.24ZM49.4211 15.104V14.604H48.9211V15.104H49.4211ZM55.1891 15.104H55.6891V14.604H55.1891V15.104ZM56.1411 41.312L55.7061 41.5585L55.711 41.5672L55.7163 41.5757L56.1411 41.312ZM62.5811 41.76L62.9104 42.1363L62.5811 41.76ZM64.8211 38.624L64.369 38.4105L64.3664 38.4161L64.8211 38.624ZM66.2771 34.088L66.7674 34.1861L66.7678 34.184L66.2771 34.088ZM66.7811 15.66H72.5491V14.66H66.7811V15.66ZM72.0491 15.16V43.048H73.0491V15.16H72.0491ZM72.4268 42.5632L66.6588 44.0192L66.9035 44.9888L72.6715 43.5328L72.4268 42.5632ZM67.2811 44.504V34.648H66.2811V44.504H67.2811ZM66.2933 34.5382C65.6351 37.4639 64.5276 39.769 62.9927 41.4824L63.7375 42.1496C65.4133 40.279 66.5832 37.8055 67.2689 34.7578L66.2933 34.5382ZM62.9927 41.4824C61.4895 43.1603 59.5383 44.004 57.0931 44.004V45.004C59.7999 45.004 62.0301 44.0557 63.7375 42.1496L62.9927 41.4824ZM57.0931 44.004C55.9845 44.004 54.9765 43.8431 54.0647 43.5275L53.7376 44.4725C54.7671 44.8289 55.8871 45.004 57.0931 45.004V44.004ZM54.0705 43.5296C53.222 43.2241 52.4908 42.7157 51.8728 41.9946L51.1135 42.6454C51.8394 43.4923 52.7136 44.1039 53.7318 44.4704L54.0705 43.5296ZM51.8728 41.9946C51.2578 41.2771 50.7636 40.3188 50.4048 39.0989L49.4454 39.3811C49.8333 40.6999 50.3845 41.7949 51.1135 42.6454L51.8728 41.9946ZM50.4085 39.1121C50.0871 37.8979 49.9211 36.376 49.9211 34.536H48.9211C48.9211 36.4293 49.0912 38.0434 49.4418 39.3679L50.4085 39.1121ZM49.9211 34.536V15.104H48.9211V34.536H49.9211ZM49.4211 15.604H55.1891V14.604H49.4211V15.604ZM54.6891 15.104V36.104H55.6891V15.104H54.6891ZM54.6891 36.104C54.6891 38.4816 55.0065 40.3239 55.7061 41.5585L56.5761 41.0655C56.0064 40.0601 55.6891 38.4304 55.6891 36.104H54.6891ZM55.7163 41.5757C56.5014 42.8406 57.8062 43.436 59.5011 43.436V42.436C58.06 42.436 57.1248 41.9488 56.5659 41.0483L55.7163 41.5757ZM59.5011 43.436C60.7833 43.436 61.9261 42.9975 62.9104 42.1363L62.2519 41.3837C61.4442 42.0905 60.5336 42.436 59.5011 42.436V43.436ZM62.9104 42.1363C63.8695 41.2971 64.6551 40.1899 65.2759 38.8319L64.3664 38.4161C63.7925 39.6715 63.0848 40.6549 62.2519 41.3837L62.9104 42.1363ZM65.2733 38.8375C65.9277 37.4516 66.4246 35.9 66.7674 34.1861L65.7868 33.9899C65.4576 35.636 64.9839 37.1084 64.369 38.4105L65.2733 38.8375ZM66.7678 34.184C67.1103 32.4336 67.2811 30.6281 67.2811 28.768H66.2811C66.2811 30.5666 66.116 32.3077 65.7864 33.992L66.7678 34.184ZM67.2811 28.768V15.16H66.2811V28.768H67.2811ZM83.8594 22.272L83.5057 22.6256L83.5134 22.633L83.8594 22.272ZM87.2194 24.68L86.9765 25.1172L86.986 25.1222L87.2194 24.68ZM91.5314 26.808L91.3212 27.2617L91.3277 27.2647L91.3344 27.2676L91.5314 26.808ZM95.8994 29.104L95.6301 29.5254L95.6387 29.5306L95.8994 29.104ZM99.2594 31.96L99.6446 31.6412L99.2594 31.96ZM97.8034 42.264L98.1047 42.663L98.1059 42.6621L97.8034 42.264ZM83.8034 43.552L83.6518 44.0285L83.8034 43.552ZM79.8274 41.536L79.4961 41.9105L79.5037 41.9172L79.5115 41.9236L79.8274 41.536ZM77.8674 38.68L78.3434 38.527L77.8674 38.68ZM77.6994 35.544L77.2143 35.4227L77.2122 35.431L77.2105 35.4392L77.6994 35.544ZM82.1234 30.392L82.5075 30.0719L82.254 29.7677L81.8998 29.9448L82.1234 30.392ZM82.4034 30.728L82.8177 31.0079L83.028 30.6966L82.7875 30.4079L82.4034 30.728ZM81.4514 35.04L80.9611 35.1381L80.9616 35.1405L81.4514 35.04ZM83.5234 39.072L83.899 38.7419L83.5234 39.072ZM87.5554 42.096L87.336 42.5453L87.34 42.5472L87.5554 42.096ZM94.6674 43.048L94.5693 42.5577L94.5644 42.5587L94.6674 43.048ZM96.6274 42.32L96.3821 41.884L96.3701 41.8913L96.6274 42.32ZM98.0834 40.976L97.6802 40.6803L97.6736 40.6893L97.6674 40.6987L98.0834 40.976ZM97.1874 36.328L96.8825 36.7244L96.8898 36.7298L97.1874 36.328ZM93.4914 34.144L93.2724 34.5935L93.2768 34.5956L93.4914 34.144ZM88.6754 32.016L88.4759 32.4747L88.488 32.4796L88.6754 32.016ZM83.8594 29.552L83.5895 29.9729L83.5958 29.9769L83.6021 29.9807L83.8594 29.552ZM80.1634 26.472L79.7803 26.7933L79.7859 26.8L79.7917 26.8065L80.1634 26.472ZM81.6754 16.672L81.3876 16.2631L81.384 16.2656L81.6754 16.672ZM93.2674 14.936L93.1538 15.4229L93.1572 15.4237L93.2674 14.936ZM96.4034 16.168L96.1461 16.5967L96.1561 16.6027L96.1663 16.6082L96.4034 16.168ZM95.1154 27.088L94.79 27.4676L95.0514 27.6917L95.354 27.5274L95.1154 27.088ZM94.7234 26.752L94.3054 26.4777L94.064 26.8454L94.398 27.1316L94.7234 26.752ZM95.6754 23L95.1784 23.0552L95.1786 23.0568L95.6754 23ZM94.2754 19.248L94.6893 18.9676V18.9676L94.2754 19.248ZM91.1954 16.392L90.9362 16.8196L90.9419 16.823L91.1954 16.392ZM83.9154 16.168L84.1726 16.5968L84.1774 16.5938L83.9154 16.168ZM82.0154 19.08C82.0154 20.4488 82.5191 21.6388 83.5058 22.6256L84.2129 21.9184C83.4077 21.1132 83.0154 20.1752 83.0154 19.08H82.0154ZM83.5134 22.633C84.4467 23.5274 85.6036 24.3543 86.9766 25.1171L87.4622 24.2429C86.1472 23.5123 85.064 22.7339 84.2053 21.911L83.5134 22.633ZM86.986 25.1222C88.3384 25.836 89.7835 26.5491 91.3212 27.2617L91.7416 26.3543C90.2179 25.6482 88.7884 24.9427 87.4528 24.2378L86.986 25.1222ZM91.3344 27.2676C92.8791 27.9296 94.3107 28.6824 95.6302 29.5253L96.1686 28.6827C94.8 27.8083 93.3197 27.0304 91.7283 26.3484L91.3344 27.2676ZM95.6387 29.5306C96.9411 30.3266 98.0174 31.2435 98.8742 32.2788L99.6446 31.6412C98.7094 30.5112 97.5456 29.5241 96.1601 28.6774L95.6387 29.5306ZM98.8742 32.2788C99.6873 33.2613 100.103 34.47 100.103 35.936H101.103C101.103 34.266 100.623 32.824 99.6446 31.6412L98.8742 32.2788ZM100.103 35.936C100.103 38.6138 99.2183 40.5607 97.5008 41.8659L98.1059 42.6621C100.122 41.13 101.103 38.8582 101.103 35.936H100.103ZM97.5021 41.865C95.7932 43.1553 93.2849 43.836 89.9074 43.836V44.836C93.3992 44.836 96.1549 44.1353 98.1047 42.663L97.5021 41.865ZM89.9074 43.836C87.5129 43.836 85.5332 43.5777 83.955 43.0755L83.6518 44.0285C85.3589 44.5716 87.4485 44.836 89.9074 44.836V43.836ZM83.955 43.0755C82.3537 42.5661 81.0895 41.9194 80.1432 41.1484L79.5115 41.9236C80.5812 42.7952 81.9677 43.4926 83.6518 44.0285L83.955 43.0755ZM80.1587 41.1615C79.243 40.3515 78.6473 39.4725 78.3434 38.527L77.3914 38.833C77.7594 39.9781 78.4704 41.0032 79.4961 41.9105L80.1587 41.1615ZM78.3434 38.527C78.0334 37.5626 77.9831 36.6061 78.1883 35.6488L77.2105 35.4392C76.9676 36.5725 77.0293 37.7067 77.3914 38.833L78.3434 38.527ZM78.1844 35.6653C78.4261 34.6989 78.893 33.7951 79.5955 32.9521L78.8273 32.3119C78.0365 33.2609 77.4954 34.2985 77.2143 35.4227L78.1844 35.6653ZM79.5955 32.9521C80.292 32.1162 81.2051 31.4102 82.347 30.8392L81.8998 29.9448C80.6523 30.5685 79.6241 31.3558 78.8273 32.3119L79.5955 32.9521ZM81.7393 30.7121L82.0193 31.0481L82.7875 30.4079L82.5075 30.0719L81.7393 30.7121ZM81.9891 30.4481C80.9887 31.9286 80.6336 33.5006 80.9611 35.1381L81.9417 34.9419C81.6718 33.5928 81.9514 32.2901 82.8177 31.0079L81.9891 30.4481ZM80.9616 35.1405C81.2795 36.6902 82.0138 38.1117 83.1478 39.4021L83.899 38.7419C82.8676 37.5683 82.2206 36.3018 81.9412 34.9395L80.9616 35.1405ZM83.1478 39.4021C84.2779 40.688 85.6765 41.7349 87.336 42.5453L87.7748 41.6467C86.2235 40.8891 84.9342 39.92 83.899 38.7419L83.1478 39.4021ZM87.34 42.5472C89.0458 43.3614 90.7991 43.772 92.5954 43.772V42.772C90.957 42.772 89.3503 42.3986 87.7707 41.6448L87.34 42.5472ZM92.5954 43.772C93.3046 43.772 94.0298 43.6932 94.7704 43.5373L94.5644 42.5587C93.8863 42.7015 93.2302 42.772 92.5954 42.772V43.772ZM94.7654 43.5383C95.5592 43.3795 96.2681 43.1187 96.8846 42.7487L96.3701 41.8913C95.8667 42.1933 95.2689 42.4178 94.5693 42.5577L94.7654 43.5383ZM96.8725 42.7558C97.5372 42.3819 98.0816 41.8801 98.4994 41.2533L97.6674 40.6987C97.3385 41.1919 96.9122 41.5861 96.3822 41.8842L96.8725 42.7558ZM98.4866 41.2717C98.971 40.6111 99.1994 39.8117 99.1994 38.904H98.1994C98.1994 39.639 98.0171 40.2209 97.6802 40.6803L98.4866 41.2717ZM99.1994 38.904C99.1994 37.7301 98.5794 36.7369 97.485 35.9262L96.8898 36.7298C97.8114 37.4124 98.1994 38.1366 98.1994 38.904H99.1994ZM97.4922 35.9317C96.4857 35.1574 95.2209 34.412 93.7059 33.6924L93.2768 34.5956C94.7485 35.2947 95.9477 36.0052 96.8825 36.7243L97.4922 35.9317ZM93.7104 33.6945C92.2424 32.9794 90.6264 32.2654 88.8628 31.5524L88.488 32.4796C90.2337 33.1853 91.8283 33.89 93.2724 34.5935L93.7104 33.6945ZM88.8747 31.5575C87.1758 30.8188 85.59 30.0073 84.1166 29.1233L83.6021 29.9807C85.1154 30.8887 86.7402 31.7198 88.476 32.4745L88.8747 31.5575ZM84.1292 29.1311C82.7054 28.2184 81.5091 27.2198 80.535 26.1375L79.7917 26.8065C80.8337 27.9642 82.1013 29.019 83.5895 29.9729L84.1292 29.1311ZM80.5465 26.1507C79.6544 25.0871 79.2074 23.8394 79.2074 22.384H78.2074C78.2074 24.0646 78.731 25.5423 79.7803 26.7933L80.5465 26.1507ZM79.2074 22.384C79.2074 20.1594 80.1161 18.4052 81.9667 17.0783L81.384 16.2656C79.2773 17.7761 78.2074 19.8299 78.2074 22.384H79.2074ZM81.9631 17.0809C83.8661 15.7418 86.515 15.044 89.9634 15.044V14.044C86.393 14.044 83.5167 14.7649 81.3876 16.2631L81.9631 17.0809ZM89.9634 15.044C91.0055 15.044 92.0687 15.1697 93.1538 15.4229L93.381 14.4491C92.2261 14.1796 91.0866 14.044 89.9634 14.044V15.044ZM93.1572 15.4237C94.2674 15.6744 95.2623 16.0665 96.1461 16.5967L96.6606 15.7393C95.6778 15.1495 94.5821 14.7203 93.3775 14.4483L93.1572 15.4237ZM96.1663 16.6082C97.0817 17.1012 97.8084 17.7101 98.3577 18.431L99.1531 17.825C98.5077 16.9779 97.6664 16.2802 96.6404 15.7278L96.1663 16.6082ZM98.3577 18.431C98.887 19.1258 99.1514 19.9148 99.1514 20.816H100.151C100.151 19.7012 99.8184 18.6982 99.1531 17.825L98.3577 18.431ZM99.1514 20.816C99.1514 23.1072 97.8052 25.0579 94.8767 26.6486L95.354 27.5274C98.4736 25.8328 100.151 23.6021 100.151 20.816H99.1514ZM95.4408 26.7084L95.0488 26.3724L94.398 27.1316L94.79 27.4676L95.4408 26.7084ZM95.1414 27.0263C95.9836 25.743 96.3359 24.3764 96.1721 22.9432L95.1786 23.0568C95.3135 24.2369 95.0312 25.3717 94.3054 26.4777L95.1414 27.0263ZM96.1723 22.9448C96.0137 21.5173 95.5173 20.1898 94.6893 18.9676L93.8614 19.5284C94.6015 20.6209 95.0384 21.7947 95.1784 23.0552L96.1723 22.9448ZM94.6893 18.9676C93.8615 17.7455 92.7787 16.7433 91.4489 15.961L90.9419 16.823C92.1507 17.534 93.1213 18.4358 93.8614 19.5284L94.6893 18.9676ZM91.4545 15.9644C90.1457 15.1711 88.7309 14.772 87.2194 14.772V15.772C88.5452 15.772 89.7811 16.1195 90.9362 16.8196L91.4545 15.9644ZM87.2194 14.772C85.9026 14.772 84.7092 15.0924 83.6533 15.7422L84.1774 16.5938C85.0629 16.0489 86.0721 15.772 87.2194 15.772V14.772ZM83.6581 15.7393C82.5328 16.4145 82.0154 17.5774 82.0154 19.08H83.0154C83.0154 17.8199 83.4313 17.0415 84.1726 16.5967L83.6581 15.7393ZM123.947 44H123.447V44.5H123.947V44ZM122.939 17.792L122.504 18.0385L122.509 18.0472L122.514 18.0557L122.939 17.792ZM113.923 20.424L113.483 20.1855L113.923 20.424ZM112.243 24.96L112.728 25.0787L112.729 25.0763L112.243 24.96ZM111.627 44V44.5H112.127V44H111.627ZM105.859 44H105.359V44.5H105.859V44ZM105.859 1.608L105.736 1.12321L105.359 1.21853V1.608H105.859ZM111.627 0.151997H112.127V-0.489901L111.504 -0.332796L111.627 0.151997ZM111.627 24.848H111.127L112.113 24.9651L111.627 24.848ZM115.379 17.4L115.015 17.0573L115.014 17.0575L115.379 17.4ZM129.155 19.808L128.671 19.936L128.675 19.9491L129.155 19.808ZM129.715 44V44.5H130.215V44H129.715ZM124.447 44V22.944H123.447V44H124.447ZM124.447 22.944C124.447 20.566 124.111 18.7325 123.363 17.5283L122.514 18.0557C123.11 19.0168 123.447 20.618 123.447 22.944H124.447ZM123.374 17.5455C122.63 16.2323 121.336 15.612 119.635 15.612V16.612C121.069 16.612 121.978 17.1117 122.504 18.0385L123.374 17.5455ZM119.635 15.612C118.354 15.612 117.181 16.0492 116.128 16.899L116.757 17.677C117.646 16.9588 118.601 16.612 119.635 16.612V15.612ZM116.128 16.899C115.098 17.7316 114.218 18.8318 113.483 20.1855L114.362 20.6625C115.046 19.4029 115.846 18.4124 116.757 17.677L116.128 16.899ZM113.483 20.1855C112.749 21.5371 112.175 23.0915 111.756 24.8437L112.729 25.0763C113.131 23.3939 113.677 21.9243 114.362 20.6625L113.483 20.1855ZM111.757 24.8413C111.336 26.5631 111.127 28.3765 111.127 30.28H112.127C112.127 28.4502 112.328 26.7169 112.728 25.0787L111.757 24.8413ZM111.127 30.28V44H112.127V30.28H111.127ZM111.627 43.5H105.859V44.5H111.627V43.5ZM106.359 44V1.608H105.359V44H106.359ZM105.981 2.09279L111.749 0.63679L111.504 -0.332796L105.736 1.12321L105.981 2.09279ZM111.127 0.151997V24.848H112.127V0.151997H111.127ZM112.113 24.9651C112.844 21.9305 114.061 19.5322 115.743 17.7425L115.014 17.0575C113.187 19.0012 111.903 21.5682 111.141 24.7309L112.113 24.9651ZM115.743 17.7427C117.437 15.9422 119.544 15.044 122.099 15.044V14.044C119.277 14.044 116.904 15.0498 115.015 17.0573L115.743 17.7427ZM122.099 15.044C123.208 15.044 124.194 15.205 125.065 15.5184L125.404 14.5776C124.408 14.219 123.304 14.044 122.099 14.044V15.044ZM125.065 15.5184C125.914 15.8239 126.645 16.3323 127.263 17.0534L128.022 16.4026C127.296 15.5557 126.422 14.9441 125.404 14.5776L125.065 15.5184ZM127.263 17.0534C127.875 17.7669 128.349 18.7202 128.671 19.9359L129.638 19.6801C129.288 18.3571 128.755 17.2571 128.022 16.4026L127.263 17.0534ZM128.675 19.9491C129.031 21.1581 129.215 22.6752 129.215 24.512H130.215C130.215 22.6155 130.025 20.9966 129.634 19.6669L128.675 19.9491ZM129.215 24.512V44H130.215V24.512H129.215ZM129.715 43.5H123.947V44.5H129.715V43.5ZM137.031 1.608L136.913 1.12211L136.531 1.21484V1.608H137.031ZM142.799 0.207996H143.299V-0.42788L142.681 -0.277896L142.799 0.207996ZM142.799 44V44.5H143.299V44H142.799ZM137.031 44H136.531V44.5H137.031V44ZM137.148 2.09389L142.916 0.693889L142.681 -0.277896L136.913 1.12211L137.148 2.09389ZM142.299 0.207996V44H143.299V0.207996H142.299ZM142.799 43.5H137.031V44.5H142.799V43.5ZM137.531 44V1.608H136.531V44H137.531ZM150.101 1.608L149.983 1.12211L149.601 1.21484V1.608H150.101ZM155.869 0.207996H156.369V-0.42788L155.751 -0.277896L155.869 0.207996ZM155.869 44V44.5H156.369V44H155.869ZM150.101 44H149.601V44.5H150.101V44ZM150.219 2.09389L155.987 0.693889L155.751 -0.277896L149.983 1.12211L150.219 2.09389ZM155.369 0.207996V44H156.369V0.207996H155.369ZM155.869 43.5H150.101V44.5H155.869V43.5ZM150.601 44V1.608H149.601V44H150.601ZM172.355 49.264L172.818 49.4531L172.821 49.4461L172.823 49.4391L172.355 49.264ZM161.211 55.872L161.462 55.4392L161.454 55.4349L161.211 55.872ZM159.531 54.36L159.94 54.0717L159.935 54.0658L159.931 54.06L159.531 54.36ZM158.579 52.344L159.064 52.2227L159.063 52.2168L158.579 52.344ZM158.299 50.216L158.113 49.7518L157.799 49.8775V50.216H158.299ZM158.579 50.104L159.043 49.9183L158.858 49.4541L158.393 49.6398L158.579 50.104ZM160.203 51.784L160.427 51.3367L160.418 51.3326L160.203 51.784ZM165.915 51.896L165.778 51.4152L165.767 51.4182L165.757 51.4217L165.915 51.896ZM168.883 50.44L168.598 50.0288L168.591 50.0342L168.883 50.44ZM171.571 47.808L171.185 47.4906L171.179 47.4981L171.173 47.5058L171.571 47.808ZM173.699 44.056L174.166 44.2355L174.427 43.556H173.699V44.056ZM170.899 44.056L170.431 44.2309L170.552 44.556H170.899V44.056ZM160.091 15.104V14.604H159.371L159.623 15.2789L160.091 15.104ZM166.307 15.104L166.776 14.9299L166.655 14.604H166.307V15.104ZM175.379 39.52L174.91 39.6941L175.378 40.9517L175.847 39.6951L175.379 39.52ZM184.507 15.104V14.604H184.16L184.039 14.9289L184.507 15.104ZM185.123 15.104L185.591 15.2791L185.844 14.604H185.123V15.104ZM171.892 49.0749C170.824 51.6906 169.633 53.4652 168.351 54.4705L168.968 55.2575C170.448 54.0975 171.721 52.1388 172.818 49.4531L171.892 49.0749ZM168.351 54.4705C167.063 55.4796 165.55 55.988 163.787 55.988V56.988C165.758 56.988 167.492 56.4137 168.968 55.2575L168.351 54.4705ZM163.787 55.988C162.847 55.988 162.079 55.7968 161.462 55.4393L160.961 56.3047C161.762 56.7685 162.711 56.988 163.787 56.988V55.988ZM161.454 55.4349C160.848 55.0985 160.345 54.6456 159.94 54.0717L159.123 54.6483C159.614 55.3437 160.23 55.8988 160.968 56.3091L161.454 55.4349ZM159.931 54.06C159.524 53.5176 159.235 52.9068 159.064 52.2227L158.094 52.4653C158.296 53.2746 158.642 54.0077 159.131 54.66L159.931 54.06ZM159.063 52.2168C158.887 51.5475 158.799 50.8809 158.799 50.216H157.799C157.799 50.9697 157.898 51.7218 158.096 52.4712L159.063 52.2168ZM158.485 50.6802L158.765 50.5682L158.393 49.6398L158.113 49.7518L158.485 50.6802ZM158.115 50.2897C158.464 51.1629 159.1 51.8127 159.988 52.2354L160.418 51.3326C159.738 51.0086 159.291 50.5384 159.043 49.9183L158.115 50.2897ZM159.98 52.2312C160.882 52.6823 161.913 52.9 163.059 52.9V51.9C162.04 51.9 161.167 51.707 160.427 51.3368L159.98 52.2312ZM163.059 52.9C164.018 52.9 165.023 52.7203 166.073 52.3703L165.757 51.4217C164.791 51.7437 163.892 51.9 163.059 51.9V52.9ZM166.052 52.3768C167.157 52.0613 168.198 51.5495 169.175 50.8458L168.591 50.0342C167.702 50.6744 166.764 51.1333 165.778 51.4152L166.052 52.3768ZM169.168 50.8511C170.188 50.1449 171.121 49.2287 171.969 48.1102L171.173 47.5058C170.379 48.5526 169.52 49.3911 168.599 50.0289L169.168 50.8511ZM171.957 48.1254C172.855 47.0329 173.589 45.7339 174.166 44.2355L173.232 43.8765C172.689 45.2901 172.005 46.4924 171.185 47.4906L171.957 48.1254ZM173.699 43.556H170.899V44.556H173.699V43.556ZM171.368 43.8811L160.56 14.9291L159.623 15.2789L170.431 44.2309L171.368 43.8811ZM160.091 15.604H166.307V14.604H160.091V15.604ZM165.838 15.2781L174.91 39.6941L175.848 39.3459L166.776 14.9299L165.838 15.2781ZM175.847 39.6951L184.975 15.2791L184.039 14.9289L174.911 39.3449L175.847 39.6951ZM184.507 15.604H185.123V14.604H184.507V15.604ZM184.655 14.9289L171.887 49.0889L172.823 49.4391L185.591 15.2791L184.655 14.9289Z" fill="#1D1A1A"/>
</svg>
