<svg width="186" height="57" viewBox="0 0 186 57" fill="none" xmlns="http://www.w3.org/2000/svg">
<path d="M0.919878 1.99951H13.0159C15.1065 1.99951 17.0292 2.16751 18.7839 2.50351C20.5759 2.83951 22.1065 3.36218 23.3759 4.07151C24.6825 4.74351 25.6905 5.62084 26.3999 6.70351C27.1465 7.74884 27.5199 9.01818 27.5199 10.5115C27.5199 11.8555 27.2212 13.0875 26.6239 14.2075C26.0639 15.2902 25.3172 16.2982 24.3839 17.2315C23.4505 18.1275 22.3865 18.9862 21.1919 19.8075C19.9972 20.6288 18.7652 21.4315 17.4959 22.2155C19.5865 22.3648 21.4719 22.7195 23.1519 23.2795C24.8692 23.8395 26.3252 24.5675 27.5199 25.4635C28.7145 26.3595 29.6479 27.4048 30.3199 28.5995C30.9919 29.7568 31.3279 31.0635 31.3279 32.5195C31.3279 34.0875 30.9359 35.5808 30.1519 36.9995C29.3679 38.3808 28.2665 39.5942 26.8479 40.6395C25.4665 41.6848 23.7865 42.5062 21.8079 43.1035C19.8292 43.7008 17.6265 43.9995 15.1999 43.9995H0.919878V1.99951ZM7.13588 2.83951V30.1675C7.65855 29.0475 8.36788 27.9835 9.26388 26.9755C10.1599 25.9675 11.1119 24.9968 12.1199 24.0635C13.1652 23.0928 14.2105 22.1222 15.2559 21.1515C16.3012 20.1808 17.2345 19.1728 18.0559 18.1275C18.9145 17.0822 19.6052 15.9808 20.1279 14.8235C20.6879 13.6662 20.9679 12.4155 20.9679 11.0715C20.9679 9.39151 20.7252 8.02884 20.2399 6.98351C19.7919 5.90084 19.1572 5.06084 18.3359 4.46351C17.5145 3.82884 16.5439 3.39951 15.4239 3.17551C14.3412 2.95151 13.1652 2.83951 11.8959 2.83951H7.13588ZM24.8319 32.5195C24.8319 30.7648 24.6265 29.2902 24.2159 28.0955C23.8425 26.9008 23.2825 25.9302 22.5359 25.1835C21.8265 24.4368 20.9679 23.8768 19.9599 23.5035C18.9519 23.0928 17.8505 22.8315 16.6559 22.7195C15.4239 23.5035 14.2292 24.2875 13.0719 25.0715C11.9519 25.8555 10.9439 26.6955 10.0479 27.5915C9.18921 28.4875 8.47988 29.4582 7.91988 30.5035C7.39721 31.5115 7.13588 32.6502 7.13588 33.9195V43.1035H14.1919C15.6479 43.1035 17.0292 42.9355 18.3359 42.5995C19.6425 42.2262 20.7625 41.6288 21.6959 40.8075C22.6665 39.9862 23.4319 38.9035 23.9919 37.5595C24.5519 36.2155 24.8319 34.5355 24.8319 32.5195ZM36.3508 1.60751L42.1188 0.207508V43.9995H36.3508V1.60751ZM66.7811 15.1595H72.5491V43.0475L66.7811 44.5035V34.6475C66.1091 37.6342 64.9705 40.0235 63.3651 41.8155C61.7598 43.6075 59.6691 44.5035 57.0931 44.5035C55.9358 44.5035 54.8718 44.3355 53.9011 43.9995C52.9678 43.6635 52.1651 43.1035 51.4931 42.3195C50.8211 41.5355 50.2985 40.5088 49.9251 39.2395C49.5891 37.9702 49.4211 36.4022 49.4211 34.5355V15.1035H55.1891V36.1035C55.1891 38.4555 55.5065 40.1915 56.1411 41.3115C56.8131 42.3942 57.9331 42.9355 59.5011 42.9355C60.6585 42.9355 61.6851 42.5435 62.5811 41.7595C63.4771 40.9755 64.2238 39.9302 64.8211 38.6235C65.4558 37.2795 65.9411 35.7675 66.2771 34.0875C66.6131 32.3702 66.7811 30.5968 66.7811 28.7675V15.1595ZM82.5154 19.0795C82.5154 20.3115 82.9634 21.3755 83.8594 22.2715C84.7554 23.1302 85.8754 23.9328 87.2194 24.6795C88.5634 25.3888 90.0007 26.0982 91.5314 26.8075C93.0994 27.4795 94.5554 28.2448 95.8994 29.1035C97.2434 29.9248 98.3634 30.8768 99.2594 31.9595C100.155 33.0422 100.603 34.3675 100.603 35.9355C100.603 38.7355 99.67 40.8448 97.8034 42.2635C95.974 43.6448 93.342 44.3355 89.9074 44.3355C87.4807 44.3355 85.446 44.0742 83.8034 43.5515C82.1607 43.0288 80.8354 42.3568 79.8274 41.5355C78.8567 40.6768 78.2034 39.7248 77.8674 38.6795C77.5314 37.6342 77.4754 36.5888 77.6994 35.5435C77.9607 34.4982 78.4647 33.5275 79.2114 32.6315C79.958 31.7355 80.9287 30.9888 82.1234 30.3915L82.4034 30.7275C81.47 32.1088 81.1527 33.5462 81.4514 35.0395C81.75 36.4955 82.4407 37.8395 83.5234 39.0715C84.606 40.3035 85.95 41.3115 87.5554 42.0955C89.198 42.8795 90.878 43.2715 92.5954 43.2715C93.2674 43.2715 93.958 43.1968 94.6674 43.0475C95.414 42.8982 96.0674 42.6555 96.6274 42.3195C97.2247 41.9835 97.71 41.5355 98.0834 40.9755C98.494 40.4155 98.6994 39.7248 98.6994 38.9035C98.6994 37.9328 98.1954 37.0742 97.1874 36.3275C96.2167 35.5808 94.9847 34.8528 93.4914 34.1435C92.0354 33.4342 90.43 32.7248 88.6754 32.0155C86.958 31.2688 85.3527 30.4475 83.8594 29.5515C82.4034 28.6182 81.1714 27.5915 80.1634 26.4715C79.1927 25.3142 78.7074 23.9515 78.7074 22.3835C78.7074 19.9942 79.6967 18.0902 81.6754 16.6715C83.6914 15.2528 86.454 14.5435 89.9634 14.5435C91.046 14.5435 92.1474 14.6742 93.2674 14.9355C94.4247 15.1968 95.47 15.6075 96.4034 16.1675C97.374 16.6902 98.158 17.3435 98.7554 18.1275C99.3527 18.9115 99.6514 19.8075 99.6514 20.8155C99.6514 23.3542 98.1394 25.4448 95.1154 27.0875L94.7234 26.7515C95.5074 25.5568 95.8247 24.3062 95.6754 22.9995C95.526 21.6555 95.0594 20.4048 94.2754 19.2475C93.4914 18.0902 92.4647 17.1382 91.1954 16.3915C89.9634 15.6448 88.638 15.2715 87.2194 15.2715C85.9874 15.2715 84.886 15.5702 83.9154 16.1675C82.982 16.7275 82.5154 17.6982 82.5154 19.0795ZM123.947 43.9995V22.9435C123.947 20.5915 123.611 18.8742 122.939 17.7915C122.304 16.6715 121.203 16.1115 119.635 16.1115C118.477 16.1115 117.413 16.5035 116.443 17.2875C115.472 18.0715 114.632 19.1168 113.923 20.4235C113.213 21.7302 112.653 23.2422 112.243 24.9595C111.832 26.6395 111.627 28.4128 111.627 30.2795V43.9995H105.859V1.60751L111.627 0.151509V24.8475C112.373 21.7488 113.624 19.2662 115.379 17.3995C117.171 15.4955 119.411 14.5435 122.099 14.5435C123.256 14.5435 124.301 14.7115 125.235 15.0475C126.168 15.3835 126.971 15.9435 127.643 16.7275C128.315 17.5115 128.819 18.5382 129.155 19.8075C129.528 21.0768 129.715 22.6448 129.715 24.5115V43.9995H123.947ZM137.031 1.60751L142.799 0.207508V43.9995H137.031V1.60751ZM150.101 1.60751L155.869 0.207508V43.9995H150.101V1.60751ZM172.355 49.2635C171.272 51.9142 170.04 53.7808 168.659 54.8635C167.278 55.9462 165.654 56.4875 163.787 56.4875C162.779 56.4875 161.92 56.2822 161.211 55.8715C160.539 55.4982 159.979 54.9942 159.531 54.3595C159.083 53.7622 158.766 53.0902 158.579 52.3435C158.392 51.6342 158.299 50.9248 158.299 50.2155L158.579 50.1035C158.878 50.8502 159.419 51.4102 160.203 51.7835C161.024 52.1942 161.976 52.3995 163.059 52.3995C163.955 52.3995 164.907 52.2315 165.915 51.8955C166.96 51.5968 167.95 51.1115 168.883 50.4395C169.854 49.7675 170.75 48.8902 171.571 47.8075C172.43 46.7622 173.139 45.5115 173.699 44.0555H170.899L160.091 15.1035H166.307L175.379 39.5195L184.507 15.1035H185.123L172.355 49.2635Z" fill="white"/>
<path d="M0.919878 1.99951V1.49951H0.419878V1.99951H0.919878ZM18.7839 2.50351L18.6898 2.99459L18.6917 2.99494L18.7839 2.50351ZM23.3759 4.07151L23.132 4.50798L23.1395 4.5122L23.1472 4.51615L23.3759 4.07151ZM26.3999 6.70351L25.9816 6.97752L25.9872 6.98594L25.993 6.99413L26.3999 6.70351ZM26.6239 14.2075L26.1827 13.9722L26.1798 13.9778L26.6239 14.2075ZM24.3839 17.2315L24.7302 17.5923L24.7374 17.5851L24.3839 17.2315ZM21.1919 19.8075L21.4751 20.2195L21.1919 19.8075ZM17.4959 22.2155L17.2331 21.7901L15.9156 22.6039L17.4603 22.7142L17.4959 22.2155ZM23.1519 23.2795L22.9938 23.7539L22.9969 23.7549L23.1519 23.2795ZM27.5199 25.4635L27.8199 25.0635L27.5199 25.4635ZM30.3199 28.5995L29.8841 28.8447L29.8875 28.8506L30.3199 28.5995ZM30.1519 36.9995L30.5868 37.2463L30.5895 37.2414L30.1519 36.9995ZM26.8479 40.6395L26.5513 40.2369L26.5462 40.2408L26.8479 40.6395ZM0.919878 43.9995H0.419878V44.4995H0.919878V43.9995ZM7.13588 2.83951V2.33951H6.63588V2.83951H7.13588ZM7.13588 30.1675H6.63588L7.58897 30.379L7.13588 30.1675ZM12.1199 24.0635L12.4596 24.4304L12.4601 24.4299L12.1199 24.0635ZM18.0559 18.1275L17.6694 17.8101L17.6627 17.8186L18.0559 18.1275ZM20.1279 14.8235L19.6776 14.6057L19.6722 14.6177L20.1279 14.8235ZM20.2399 6.98351L19.7779 7.17469L19.7819 7.18447L19.7864 7.19407L20.2399 6.98351ZM18.3359 4.46351L18.0302 4.85915L18.0359 4.8636L18.0418 4.86788L18.3359 4.46351ZM15.4239 3.17551L15.3226 3.66515L15.3258 3.6658L15.4239 3.17551ZM24.2159 28.0955L23.7384 28.2447L23.743 28.258L24.2159 28.0955ZM22.5359 25.1835L22.1733 25.528L22.1823 25.5371L22.5359 25.1835ZM19.9599 23.5035L19.7712 23.9666L19.7787 23.9696L19.7862 23.9724L19.9599 23.5035ZM16.6559 22.7195L16.7025 22.2217L16.532 22.2057L16.3874 22.2977L16.6559 22.7195ZM13.0719 25.0715L12.7914 24.6575L12.7851 24.6619L13.0719 25.0715ZM10.0479 27.5915L9.69425 27.2379L9.68688 27.2456L10.0479 27.5915ZM7.91988 30.5035L7.4791 30.2674L7.476 30.2734L7.91988 30.5035ZM7.13588 43.1035H6.63588V43.6035H7.13588V43.1035ZM18.3359 42.5995L18.4604 43.0839L18.4732 43.0803L18.3359 42.5995ZM21.6959 40.8075L21.3728 40.4257L21.3656 40.4322L21.6959 40.8075ZM23.9919 37.5595L24.4534 37.7518L23.9919 37.5595ZM0.919878 2.49951H13.0159V1.49951H0.919878V2.49951ZM13.0159 2.49951C15.0802 2.49951 16.9709 2.66542 18.6898 2.99459L18.8779 2.01243C17.0876 1.6696 15.1329 1.49951 13.0159 1.49951V2.49951ZM18.6917 2.99494C20.4434 3.32339 21.9202 3.8308 23.132 4.50798L23.6198 3.63504C22.2929 2.89356 20.7083 2.35563 18.876 2.01207L18.6917 2.99494ZM23.1472 4.51615C24.3876 5.15405 25.3258 5.97649 25.9816 6.97752L26.8181 6.4295C26.0553 5.2652 24.9775 4.33297 23.6046 3.62686L23.1472 4.51615ZM25.993 6.99413C26.6697 7.94147 27.0199 9.1049 27.0199 10.5115H28.0199C28.0199 8.93145 27.6234 7.55622 26.8067 6.41289L25.993 6.99413ZM27.0199 10.5115C27.0199 11.7784 26.7391 12.9289 26.1827 13.9722L27.0651 14.4428C27.7033 13.2461 28.0199 11.9326 28.0199 10.5115H27.0199ZM26.1798 13.9778C25.6453 15.0111 24.9303 15.978 24.0303 16.878L24.7374 17.5851C25.7041 16.6184 26.4825 15.5692 27.068 14.4372L26.1798 13.9778ZM24.0376 16.8708C23.126 17.7459 22.0835 18.5877 20.9086 19.3955L21.4751 20.2195C22.6895 19.3846 23.7751 18.5091 24.7301 17.5922L24.0376 16.8708ZM20.9086 19.3955C19.7209 20.2121 18.4957 21.0103 17.2331 21.7901L17.7586 22.6409C19.0347 21.8527 20.2736 21.0456 21.4751 20.2195L20.9086 19.3955ZM17.4603 22.7142C19.5166 22.8611 21.3599 23.2092 22.9938 23.7539L23.31 22.8052C21.5839 22.2298 19.6565 21.8686 17.5315 21.7168L17.4603 22.7142ZM22.9969 23.7549C24.6726 24.3013 26.0772 25.0065 27.2199 25.8635L27.8199 25.0635C26.5733 24.1285 25.0658 23.3777 23.3069 22.8041L22.9969 23.7549ZM27.2199 25.8635C28.364 26.7216 29.2491 27.7157 29.8841 28.8446L30.7557 28.3544C30.0467 27.094 29.065 25.9974 27.8199 25.0635L27.2199 25.8635ZM29.8875 28.8506C30.5114 29.925 30.8279 31.1437 30.8279 32.5195H31.8279C31.8279 30.9833 31.4724 29.5887 30.7523 28.3484L29.8875 28.8506ZM30.8279 32.5195C30.8279 34 30.4588 35.4104 29.7143 36.7577L30.5895 37.2414C31.413 35.7512 31.8279 34.175 31.8279 32.5195H30.8279ZM29.717 36.7527C28.9713 38.0666 27.9197 39.2287 26.5513 40.237L27.1445 41.042C28.6134 39.9597 29.7645 38.6951 30.5867 37.2463L29.717 36.7527ZM26.5462 40.2408C25.2202 41.2442 23.596 42.0414 21.6634 42.6248L21.9524 43.5822C23.9771 42.9709 25.7129 42.1255 27.1496 41.0382L26.5462 40.2408ZM21.6634 42.6248C19.7389 43.2058 17.5859 43.4995 15.1999 43.4995V44.4995C17.6672 44.4995 19.9195 44.1959 21.9524 43.5822L21.6634 42.6248ZM15.1999 43.4995H0.919878V44.4995H15.1999V43.4995ZM1.41988 43.9995V1.99951H0.419878V43.9995H1.41988ZM6.63588 2.83951V30.1675H7.63588V2.83951H6.63588ZM7.58897 30.379C8.08939 29.3066 8.77084 28.2828 9.63758 27.3077L8.89017 26.6433C7.96492 27.6842 7.22771 28.7884 6.68279 29.9561L7.58897 30.379ZM9.63758 27.3077C10.5226 26.312 11.4633 25.3529 12.4596 24.4304L11.7802 23.6966C10.7605 24.6408 9.79714 25.623 8.89017 26.6433L9.63758 27.3077ZM12.4601 24.4299C13.5054 23.4592 14.5508 22.4886 15.5961 21.5179L14.9157 20.7851C13.8703 21.7558 12.825 22.7264 11.7797 23.6971L12.4601 24.4299ZM15.5961 21.5179C16.6592 20.5308 17.6105 19.5037 18.449 18.4364L17.6627 17.8186C16.8586 18.842 15.9432 19.8309 14.9157 20.7851L15.5961 21.5179ZM18.4422 18.4449C19.327 17.3678 20.0417 16.2292 20.5836 15.0293L19.6722 14.6177C19.1688 15.7324 18.5021 16.7966 17.6695 17.8101L18.4422 18.4449ZM20.578 15.0413C21.1723 13.813 21.4679 12.4874 21.4679 11.0715H20.4679C20.4679 12.3436 20.2034 13.5194 19.6778 14.6057L20.578 15.0413ZM21.4679 11.0715C21.4679 9.34944 21.2201 7.90733 20.6934 6.77295L19.7864 7.19407C20.2304 8.15036 20.4679 9.43358 20.4679 11.0715H21.4679ZM20.7019 6.79234C20.2242 5.63782 19.5367 4.7186 18.63 4.05914L18.0418 4.86788C18.7777 5.40308 19.3596 6.16387 19.7779 7.17469L20.7019 6.79234ZM18.6416 4.06787C17.7533 3.38148 16.7098 2.9228 15.5219 2.68522L15.3258 3.6658C16.3779 3.87622 17.2757 4.2762 18.0302 4.85915L18.6416 4.06787ZM15.5252 2.68588C14.4047 2.45406 13.1944 2.33951 11.8959 2.33951V3.33951C13.1361 3.33951 14.2777 3.44896 15.3226 3.66514L15.5252 2.68588ZM11.8959 2.33951H7.13588V3.33951H11.8959V2.33951ZM25.3319 32.5195C25.3319 30.7294 25.1229 29.1959 24.6887 27.933L23.743 28.258C24.1302 29.3844 24.3319 30.8003 24.3319 32.5195H25.3319ZM24.6931 27.9464C24.3001 26.6888 23.7029 25.6435 22.8894 24.83L22.1823 25.5371C22.8622 26.2169 23.385 27.1129 23.7386 28.2446L24.6931 27.9464ZM22.8984 24.8391C22.1341 24.0347 21.2099 23.4333 20.1335 23.0346L19.7862 23.9724C20.7258 24.3204 21.519 24.839 22.1734 25.5279L22.8984 24.8391ZM20.1485 23.0405C19.0908 22.6095 17.941 22.3378 16.7025 22.2217L16.6092 23.2173C17.76 23.3252 18.813 23.5762 19.7712 23.9666L20.1485 23.0405ZM16.3874 22.2977C15.1516 23.0841 13.9529 23.8708 12.7915 24.6576L13.3523 25.4855C14.5055 24.7043 15.6962 23.9229 16.9243 23.1413L16.3874 22.2977ZM12.7851 24.6619C11.6431 25.4613 10.6125 26.3198 9.69433 27.238L10.4014 27.9451C11.2753 27.0712 12.2606 26.2497 13.3586 25.4811L12.7851 24.6619ZM9.68688 27.2456C8.79823 28.1728 8.06158 29.1802 7.47914 30.2674L8.36062 30.7396C8.89818 29.7362 9.58019 28.8022 10.4089 27.9375L9.68688 27.2456ZM7.476 30.2734C6.91229 31.3605 6.63588 32.5796 6.63588 33.9195H7.63588C7.63588 32.7207 7.88213 31.6625 8.36376 30.7337L7.476 30.2734ZM6.63588 33.9195V43.1035H7.63588V33.9195H6.63588ZM7.13588 43.6035H14.1919V42.6035H7.13588V43.6035ZM14.1919 43.6035C15.6866 43.6035 17.11 43.431 18.4604 43.0838L18.2114 42.1153C16.9484 42.44 15.6092 42.6035 14.1919 42.6035V43.6035ZM18.4732 43.0803C19.8445 42.6885 21.0321 42.0576 22.0262 41.1829L21.3656 40.4322C20.493 41.2001 19.4406 41.7639 18.1985 42.1188L18.4732 43.0803ZM22.0189 41.1892C23.0583 40.3096 23.8674 39.1584 24.4534 37.7518L23.5303 37.3672C22.9964 38.6487 22.2748 39.6627 21.3729 40.4258L22.0189 41.1892ZM24.4534 37.7518C25.0466 36.3283 25.3319 34.5778 25.3319 32.5195H24.3319C24.3319 34.4932 24.0572 36.1027 23.5303 37.3672L24.4534 37.7518ZM36.3508 1.60751L36.2329 1.12162L35.8508 1.21435V1.60751H36.3508ZM42.1188 0.207508H42.6188V-0.428369L42.0009 -0.278384L42.1188 0.207508ZM42.1188 43.9995V44.4995H42.6188V43.9995H42.1188ZM36.3508 43.9995H35.8508V44.4995H36.3508V43.9995ZM36.4688 2.0934L42.2368 0.6934L42.0009 -0.278384L36.2329 1.12162L36.4688 2.0934ZM41.6188 0.207508V43.9995H42.6188V0.207508H41.6188ZM42.1188 43.4995H36.3508V44.4995H42.1188V43.4995ZM36.8508 43.9995V1.60751H35.8508V43.9995H36.8508ZM66.7811 15.1595V14.6595H66.2811V15.1595H66.7811ZM72.5491 15.1595H73.0491V14.6595H72.5491V15.1595ZM72.5491 43.0475L72.6715 43.5323L73.0491 43.437V43.0475H72.5491ZM66.7811 44.5035H66.2811V45.1454L66.9035 44.9883L66.7811 44.5035ZM66.7811 34.6475H67.2811L66.2933 34.5378L66.7811 34.6475ZM63.3651 41.8155L62.9927 41.4819L63.3651 41.8155ZM53.9011 43.9995L53.7318 44.47L53.7376 44.472L53.9011 43.9995ZM51.4931 42.3195L51.1135 42.6449L51.4931 42.3195ZM49.9251 39.2395L49.4416 39.3675L49.4454 39.3806L49.9251 39.2395ZM49.4211 15.1035V14.6035H48.9211V15.1035H49.4211ZM55.1891 15.1035H55.6891V14.6035H55.1891V15.1035ZM56.1411 41.3115L55.7061 41.558L55.711 41.5667L55.7163 41.5752L56.1411 41.3115ZM62.5811 41.7595L62.9104 42.1358L62.5811 41.7595ZM64.8211 38.6235L64.369 38.41L64.3664 38.4156L64.8211 38.6235ZM66.2771 34.0875L66.7674 34.1856L66.7678 34.1835L66.2771 34.0875ZM66.7811 15.6595H72.5491V14.6595H66.7811V15.6595ZM72.0491 15.1595V43.0475H73.0491V15.1595H72.0491ZM72.4268 42.5627L66.6588 44.0187L66.9035 44.9883L72.6715 43.5323L72.4268 42.5627ZM67.2811 44.5035V34.6475H66.2811V44.5035H67.2811ZM66.2933 34.5378C65.6351 37.4634 64.5276 39.7685 62.9927 41.4819L63.7375 42.1491C65.4133 40.2785 66.5832 37.805 67.2689 34.7573L66.2933 34.5378ZM62.9927 41.4819C61.4895 43.1599 59.5383 44.0035 57.0931 44.0035V45.0035C59.7999 45.0035 62.0301 44.0552 63.7375 42.1491L62.9927 41.4819ZM57.0931 44.0035C55.9845 44.0035 54.9765 43.8427 54.0647 43.527L53.7376 44.472C54.7671 44.8284 55.8871 45.0035 57.0931 45.0035V44.0035ZM54.0705 43.5291C53.222 43.2236 52.4908 42.7152 51.8728 41.9941L51.1135 42.6449C51.8394 43.4918 52.7136 44.1034 53.7318 44.47L54.0705 43.5291ZM51.8728 41.9941C51.2578 41.2766 50.7636 40.3183 50.4048 39.0984L49.4454 39.3806C49.8333 40.6994 50.3845 41.7944 51.1135 42.6449L51.8728 41.9941ZM50.4085 39.1116C50.0871 37.8974 49.9211 36.3755 49.9211 34.5355H48.9211C48.9211 36.4288 49.0912 38.0429 49.4418 39.3675L50.4085 39.1116ZM49.9211 34.5355V15.1035H48.9211V34.5355H49.9211ZM49.4211 15.6035H55.1891V14.6035H49.4211V15.6035ZM54.6891 15.1035V36.1035H55.6891V15.1035H54.6891ZM54.6891 36.1035C54.6891 38.4812 55.0065 40.3235 55.7061 41.558L56.5761 41.065C56.0064 40.0596 55.6891 38.4299 55.6891 36.1035H54.6891ZM55.7163 41.5752C56.5014 42.8401 57.8062 43.4355 59.5011 43.4355V42.4355C58.06 42.4355 57.1248 41.9483 56.5659 41.0478L55.7163 41.5752ZM59.5011 43.4355C60.7833 43.4355 61.9261 42.997 62.9104 42.1358L62.2519 41.3832C61.4442 42.09 60.5336 42.4355 59.5011 42.4355V43.4355ZM62.9104 42.1358C63.8695 41.2966 64.6551 40.1894 65.2759 38.8314L64.3664 38.4156C63.7925 39.671 63.0848 40.6545 62.2519 41.3832L62.9104 42.1358ZM65.2733 38.837C65.9277 37.4511 66.4246 35.8995 66.7674 34.1856L65.7868 33.9895C65.4576 35.6355 64.9839 37.1079 64.369 38.41L65.2733 38.837ZM66.7678 34.1835C67.1103 32.4332 67.2811 30.6276 67.2811 28.7675H66.2811C66.2811 30.5661 66.116 32.3072 65.7864 33.9915L66.7678 34.1835ZM67.2811 28.7675V15.1595H66.2811V28.7675H67.2811ZM83.8594 22.2715L83.5057 22.6251L83.5134 22.6325L83.8594 22.2715ZM87.2194 24.6795L86.9765 25.1167L86.986 25.1217L87.2194 24.6795ZM91.5314 26.8075L91.3212 27.2612L91.3277 27.2642L91.3344 27.2671L91.5314 26.8075ZM95.8994 29.1035L95.6301 29.5249L95.6387 29.5302L95.8994 29.1035ZM99.2594 31.9595L99.6446 31.6407L99.2594 31.9595ZM97.8034 42.2635L98.1047 42.6625L98.1059 42.6616L97.8034 42.2635ZM83.8034 43.5515L83.6518 44.028L83.8034 43.5515ZM79.8274 41.5355L79.4961 41.91L79.5037 41.9167L79.5115 41.9231L79.8274 41.5355ZM77.8674 38.6795L78.3434 38.5265L77.8674 38.6795ZM77.6994 35.5435L77.2143 35.4222L77.2122 35.4305L77.2105 35.4387L77.6994 35.5435ZM82.1234 30.3915L82.5075 30.0714L82.254 29.7672L81.8998 29.9443L82.1234 30.3915ZM82.4034 30.7275L82.8177 31.0074L83.028 30.6961L82.7875 30.4074L82.4034 30.7275ZM81.4514 35.0395L80.9611 35.1376L80.9616 35.14L81.4514 35.0395ZM83.5234 39.0715L83.899 38.7415L83.5234 39.0715ZM87.5554 42.0955L87.336 42.5448L87.34 42.5468L87.5554 42.0955ZM94.6674 43.0475L94.5693 42.5572L94.5644 42.5582L94.6674 43.0475ZM96.6274 42.3195L96.3821 41.8836L96.3701 41.8908L96.6274 42.3195ZM98.0834 40.9755L97.6802 40.6798L97.6736 40.6889L97.6674 40.6982L98.0834 40.9755ZM97.1874 36.3275L96.8825 36.7239L96.8898 36.7293L97.1874 36.3275ZM93.4914 34.1435L93.2724 34.593L93.2768 34.5951L93.4914 34.1435ZM88.6754 32.0155L88.4759 32.4742L88.488 32.4791L88.6754 32.0155ZM83.8594 29.5515L83.5895 29.9725L83.5958 29.9764L83.6021 29.9803L83.8594 29.5515ZM80.1634 26.4715L79.7803 26.7928L79.7859 26.7995L79.7917 26.806L80.1634 26.4715ZM81.6754 16.6715L81.3876 16.2626L81.384 16.2652L81.6754 16.6715ZM93.2674 14.9355L93.1538 15.4224L93.1572 15.4232L93.2674 14.9355ZM96.4034 16.1675L96.1461 16.5963L96.1561 16.6022L96.1663 16.6077L96.4034 16.1675ZM95.1154 27.0875L94.79 27.4671L95.0514 27.6912L95.354 27.5269L95.1154 27.0875ZM94.7234 26.7515L94.3054 26.4772L94.064 26.8449L94.398 27.1311L94.7234 26.7515ZM95.6754 22.9995L95.1784 23.0547L95.1786 23.0563L95.6754 22.9995ZM94.2754 19.2475L94.6893 18.9671V18.9671L94.2754 19.2475ZM91.1954 16.3915L90.9362 16.8191L90.9419 16.8225L91.1954 16.3915ZM83.9154 16.1675L84.1726 16.5963L84.1774 16.5933L83.9154 16.1675ZM82.0154 19.0795C82.0154 20.4483 82.5191 21.6383 83.5058 22.6251L84.2129 21.918C83.4077 21.1127 83.0154 20.1747 83.0154 19.0795H82.0154ZM83.5134 22.6325C84.4467 23.5269 85.6036 24.3538 86.9766 25.1166L87.4622 24.2424C86.1472 23.5119 85.064 22.7334 84.2053 21.9105L83.5134 22.6325ZM86.986 25.1217C88.3384 25.8355 89.7835 26.5486 91.3212 27.2612L91.7416 26.3539C90.2179 25.6478 88.7884 24.9422 87.4528 24.2373L86.986 25.1217ZM91.3344 27.2671C92.8791 27.9291 94.3107 28.6819 95.6302 29.5249L96.1686 28.6822C94.8 27.8078 93.3197 27.0299 91.7283 26.3479L91.3344 27.2671ZM95.6387 29.5302C96.9411 30.3261 98.0174 31.243 98.8742 32.2783L99.6446 31.6407C98.7094 30.5107 97.5456 29.5236 96.1601 28.6769L95.6387 29.5302ZM98.8742 32.2783C99.6873 33.2608 100.103 34.4696 100.103 35.9355H101.103C101.103 34.2655 100.623 32.8235 99.6446 31.6407L98.8742 32.2783ZM100.103 35.9355C100.103 38.6133 99.2183 40.5602 97.5008 41.8654L98.1059 42.6616C100.122 41.1295 101.103 38.8577 101.103 35.9355H100.103ZM97.5021 41.8645C95.7932 43.1549 93.2849 43.8355 89.9074 43.8355V44.8355C93.3992 44.8355 96.1549 44.1348 98.1047 42.6625L97.5021 41.8645ZM89.9074 43.8355C87.5129 43.8355 85.5332 43.5772 83.955 43.0751L83.6518 44.028C85.3589 44.5712 87.4485 44.8355 89.9074 44.8355V43.8355ZM83.955 43.0751C82.3537 42.5656 81.0895 41.919 80.1432 41.1479L79.5115 41.9231C80.5812 42.7947 81.9677 43.4921 83.6518 44.028L83.955 43.0751ZM80.1587 41.161C79.243 40.351 78.6473 39.472 78.3434 38.5265L77.3914 38.8325C77.7594 39.9776 78.4704 41.0027 79.4961 41.91L80.1587 41.161ZM78.3434 38.5265C78.0334 37.5621 77.9831 36.6056 78.1883 35.6483L77.2105 35.4387C76.9676 36.572 77.0293 37.7062 77.3914 38.8325L78.3434 38.5265ZM78.1844 35.6648C78.4261 34.6984 78.893 33.7946 79.5955 32.9516L78.8273 32.3114C78.0365 33.2604 77.4954 34.298 77.2143 35.4222L78.1844 35.6648ZM79.5955 32.9516C80.292 32.1158 81.2051 31.4097 82.347 30.8387L81.8998 29.9443C80.6523 30.568 79.6241 31.3553 78.8273 32.3114L79.5955 32.9516ZM81.7393 30.7116L82.0193 31.0476L82.7875 30.4074L82.5075 30.0714L81.7393 30.7116ZM81.9891 30.4476C80.9887 31.9281 80.6336 33.5001 80.9611 35.1376L81.9417 34.9415C81.6718 33.5923 81.9514 32.2896 82.8177 31.0074L81.9891 30.4476ZM80.9616 35.14C81.2795 36.6897 82.0138 38.1112 83.1478 39.4016L83.899 38.7415C82.8676 37.5678 82.2206 36.3013 81.9412 34.939L80.9616 35.14ZM83.1478 39.4016C84.2779 40.6875 85.6765 41.7344 87.336 42.5448L87.7748 41.6462C86.2235 40.8886 84.9342 39.9195 83.899 38.7415L83.1478 39.4016ZM87.34 42.5468C89.0458 43.3609 90.7991 43.7715 92.5954 43.7715V42.7715C90.957 42.7715 89.3503 42.3981 87.7707 41.6443L87.34 42.5468ZM92.5954 43.7715C93.3046 43.7715 94.0298 43.6927 94.7704 43.5368L94.5644 42.5582C93.8863 42.701 93.2302 42.7715 92.5954 42.7715V43.7715ZM94.7654 43.5378C95.5592 43.3791 96.2681 43.1182 96.8846 42.7483L96.3701 41.8908C95.8667 42.1928 95.2689 42.4173 94.5693 42.5572L94.7654 43.5378ZM96.8725 42.7553C97.5372 42.3814 98.0816 41.8796 98.4994 41.2529L97.6674 40.6982C97.3385 41.1914 96.9122 41.5856 96.3822 41.8837L96.8725 42.7553ZM98.4866 41.2712C98.971 40.6106 99.1994 39.8112 99.1994 38.9035H98.1994C98.1994 39.6385 98.0171 40.2204 97.6802 40.6798L98.4866 41.2712ZM99.1994 38.9035C99.1994 37.7296 98.5794 36.7364 97.485 35.9257L96.8898 36.7293C97.8114 37.412 98.1994 38.1361 98.1994 38.9035H99.1994ZM97.4922 35.9312C96.4857 35.1569 95.2209 34.4115 93.7059 33.6919L93.2768 34.5951C94.7485 35.2942 95.9477 36.0047 96.8825 36.7238L97.4922 35.9312ZM93.7104 33.694C92.2424 32.9789 90.6264 32.2649 88.8628 31.552L88.488 32.4791C90.2337 33.1848 91.8283 33.8895 93.2724 34.593L93.7104 33.694ZM88.8747 31.557C87.1758 30.8183 85.59 30.0068 84.1166 29.1228L83.6021 29.9803C85.1154 30.8882 86.7402 31.7194 88.476 32.474L88.8747 31.557ZM84.1292 29.1306C82.7054 28.2179 81.5091 27.2193 80.535 26.137L79.7917 26.806C80.8337 27.9637 82.1013 29.0185 83.5895 29.9725L84.1292 29.1306ZM80.5465 26.1502C79.6544 25.0866 79.2074 23.8389 79.2074 22.3835H78.2074C78.2074 24.0642 78.731 25.5418 79.7803 26.7928L80.5465 26.1502ZM79.2074 22.3835C79.2074 20.1589 80.1161 18.4047 81.9667 17.0779L81.384 16.2652C79.2773 17.7756 78.2074 19.8294 78.2074 22.3835H79.2074ZM81.9631 17.0804C83.8661 15.7413 86.515 15.0435 89.9634 15.0435V14.0435C86.393 14.0435 83.5167 14.7644 81.3876 16.2626L81.9631 17.0804ZM89.9634 15.0435C91.0055 15.0435 92.0687 15.1693 93.1538 15.4224L93.381 14.4486C92.2261 14.1791 91.0866 14.0435 89.9634 14.0435V15.0435ZM93.1572 15.4232C94.2674 15.6739 95.2623 16.066 96.1461 16.5963L96.6606 15.7388C95.6778 15.1491 94.5821 14.7198 93.3775 14.4478L93.1572 15.4232ZM96.1663 16.6077C97.0817 17.1007 97.8084 17.7096 98.3577 18.4305L99.1531 17.8245C98.5077 16.9775 97.6664 16.2797 96.6404 15.7273L96.1663 16.6077ZM98.3577 18.4305C98.887 19.1253 99.1514 19.9143 99.1514 20.8155H100.151C100.151 19.7007 99.8184 18.6977 99.1531 17.8245L98.3577 18.4305ZM99.1514 20.8155C99.1514 23.1068 97.8052 25.0574 94.8767 26.6481L95.354 27.5269C98.4736 25.8323 100.151 23.6016 100.151 20.8155H99.1514ZM95.4408 26.7079L95.0488 26.3719L94.398 27.1311L94.79 27.4671L95.4408 26.7079ZM95.1414 27.0258C95.9836 25.7425 96.3359 24.3759 96.1721 22.9427L95.1786 23.0563C95.3135 24.2364 95.0312 25.3712 94.3054 26.4772L95.1414 27.0258ZM96.1723 22.9443C96.0137 21.5168 95.5173 20.1893 94.6893 18.9671L93.8614 19.5279C94.6015 20.6204 95.0384 21.7942 95.1784 23.0547L96.1723 22.9443ZM94.6893 18.9671C93.8615 17.745 92.7787 16.7428 91.4489 15.9605L90.9419 16.8225C92.1507 17.5336 93.1213 18.4354 93.8614 19.5279L94.6893 18.9671ZM91.4545 15.9639C90.1457 15.1707 88.7309 14.7715 87.2194 14.7715V15.7715C88.5452 15.7715 89.7811 16.119 90.9362 16.8191L91.4545 15.9639ZM87.2194 14.7715C85.9026 14.7715 84.7092 15.0919 83.6533 15.7417L84.1774 16.5933C85.0629 16.0484 86.0721 15.7715 87.2194 15.7715V14.7715ZM83.6581 15.7388C82.5328 16.414 82.0154 17.5769 82.0154 19.0795H83.0154C83.0154 17.8194 83.4313 17.0411 84.1726 16.5963L83.6581 15.7388ZM123.947 43.9995H123.447V44.4995H123.947V43.9995ZM122.939 17.7915L122.504 18.038L122.509 18.0467L122.514 18.0552L122.939 17.7915ZM113.923 20.4235L113.483 20.185L113.923 20.4235ZM112.243 24.9595L112.728 25.0782L112.729 25.0758L112.243 24.9595ZM111.627 43.9995V44.4995H112.127V43.9995H111.627ZM105.859 43.9995H105.359V44.4995H105.859V43.9995ZM105.859 1.60751L105.736 1.12272L105.359 1.21804V1.60751H105.859ZM111.627 0.151509H112.127V-0.490389L111.504 -0.333284L111.627 0.151509ZM111.627 24.8475H111.127L112.113 24.9646L111.627 24.8475ZM115.379 17.3995L115.015 17.0568L115.014 17.0571L115.379 17.3995ZM129.155 19.8075L128.671 19.9355L128.675 19.9486L129.155 19.8075ZM129.715 43.9995V44.4995H130.215V43.9995H129.715ZM124.447 43.9995V22.9435H123.447V43.9995H124.447ZM124.447 22.9435C124.447 20.5655 124.111 18.732 123.363 17.5278L122.514 18.0552C123.11 19.0163 123.447 20.6175 123.447 22.9435H124.447ZM123.374 17.545C122.63 16.2318 121.336 15.6115 119.635 15.6115V16.6115C121.069 16.6115 121.978 17.1112 122.504 18.038L123.374 17.545ZM119.635 15.6115C118.354 15.6115 117.181 16.0487 116.128 16.8985L116.757 17.6765C117.646 16.9583 118.601 16.6115 119.635 16.6115V15.6115ZM116.128 16.8985C115.098 17.7311 114.218 18.8313 113.483 20.185L114.362 20.6621C115.046 19.4024 115.846 18.412 116.757 17.6765L116.128 16.8985ZM113.483 20.185C112.749 21.5366 112.175 23.091 111.756 24.8432L112.729 25.0758C113.131 23.3934 113.677 21.9238 114.362 20.6621L113.483 20.185ZM111.757 24.8408C111.336 26.5626 111.127 28.376 111.127 30.2795H112.127C112.127 28.4497 112.328 26.7164 112.728 25.0782L111.757 24.8408ZM111.127 30.2795V43.9995H112.127V30.2795H111.127ZM111.627 43.4995H105.859V44.4995H111.627V43.4995ZM106.359 43.9995V1.60751H105.359V43.9995H106.359ZM105.981 2.0923L111.749 0.636302L111.504 -0.333284L105.736 1.12272L105.981 2.0923ZM111.127 0.151509V24.8475H112.127V0.151509H111.127ZM112.113 24.9646C112.844 21.93 114.061 19.5317 115.743 17.742L115.014 17.0571C113.187 19.0007 111.903 21.5677 111.141 24.7304L112.113 24.9646ZM115.743 17.7422C117.437 15.9417 119.544 15.0435 122.099 15.0435V14.0435C119.277 14.0435 116.904 15.0493 115.015 17.0568L115.743 17.7422ZM122.099 15.0435C123.208 15.0435 124.194 15.2045 125.065 15.518L125.404 14.5771C124.408 14.2186 123.304 14.0435 122.099 14.0435V15.0435ZM125.065 15.518C125.914 15.8234 126.645 16.3318 127.263 17.0529L128.022 16.4021C127.296 15.5552 126.422 14.9436 125.404 14.5771L125.065 15.518ZM127.263 17.0529C127.875 17.7664 128.349 18.7197 128.671 19.9355L129.638 19.6796C129.288 18.3566 128.755 17.2566 128.022 16.4021L127.263 17.0529ZM128.675 19.9486C129.031 21.1576 129.215 22.6747 129.215 24.5115H130.215C130.215 22.615 130.025 20.9961 129.634 19.6664L128.675 19.9486ZM129.215 24.5115V43.9995H130.215V24.5115H129.215ZM129.715 43.4995H123.947V44.4995H129.715V43.4995ZM137.031 1.60751L136.913 1.12162L136.531 1.21435V1.60751H137.031ZM142.799 0.207508H143.299V-0.428369L142.681 -0.278384L142.799 0.207508ZM142.799 43.9995V44.4995H143.299V43.9995H142.799ZM137.031 43.9995H136.531V44.4995H137.031V43.9995ZM137.148 2.0934L142.916 0.6934L142.681 -0.278384L136.913 1.12162L137.148 2.0934ZM142.299 0.207508V43.9995H143.299V0.207508H142.299ZM142.799 43.4995H137.031V44.4995H142.799V43.4995ZM137.531 43.9995V1.60751H136.531V43.9995H137.531ZM150.101 1.60751L149.983 1.12162L149.601 1.21435V1.60751H150.101ZM155.869 0.207508H156.369V-0.428369L155.751 -0.278384L155.869 0.207508ZM155.869 43.9995V44.4995H156.369V43.9995H155.869ZM150.101 43.9995H149.601V44.4995H150.101V43.9995ZM150.219 2.0934L155.987 0.6934L155.751 -0.278384L149.983 1.12162L150.219 2.0934ZM155.369 0.207508V43.9995H156.369V0.207508H155.369ZM155.869 43.4995H150.101V44.4995H155.869V43.4995ZM150.601 43.9995V1.60751H149.601V43.9995H150.601ZM172.355 49.2635L172.818 49.4526L172.821 49.4456L172.823 49.4386L172.355 49.2635ZM161.211 55.8715L161.462 55.4387L161.454 55.4344L161.211 55.8715ZM159.531 54.3595L159.94 54.0712L159.935 54.0653L159.931 54.0595L159.531 54.3595ZM158.579 52.3435L159.064 52.2222L159.063 52.2163L158.579 52.3435ZM158.299 50.2155L158.113 49.7513L157.799 49.877V50.2155H158.299ZM158.579 50.1035L159.043 49.9178L158.858 49.4536L158.393 49.6393L158.579 50.1035ZM160.203 51.7835L160.427 51.3362L160.418 51.3321L160.203 51.7835ZM165.915 51.8955L165.778 51.4147L165.767 51.4177L165.757 51.4212L165.915 51.8955ZM168.883 50.4395L168.598 50.0283L168.591 50.0337L168.883 50.4395ZM171.571 47.8075L171.185 47.4901L171.179 47.4976L171.173 47.5053L171.571 47.8075ZM173.699 44.0555L174.166 44.235L174.427 43.5555H173.699V44.0555ZM170.899 44.0555L170.431 44.2304L170.552 44.5555H170.899V44.0555ZM160.091 15.1035V14.6035H159.371L159.623 15.2784L160.091 15.1035ZM166.307 15.1035L166.776 14.9294L166.655 14.6035H166.307V15.1035ZM175.379 39.5195L174.91 39.6937L175.378 40.9512L175.847 39.6946L175.379 39.5195ZM184.507 15.1035V14.6035H184.16L184.039 14.9284L184.507 15.1035ZM185.123 15.1035L185.591 15.2786L185.844 14.6035H185.123V15.1035ZM171.892 49.0744C170.824 51.6901 169.633 53.4647 168.351 54.47L168.968 55.257C170.448 54.097 171.721 52.1383 172.818 49.4526L171.892 49.0744ZM168.351 54.47C167.063 55.4791 165.55 55.9875 163.787 55.9875V56.9875C165.758 56.9875 167.492 56.4132 168.968 55.257L168.351 54.47ZM163.787 55.9875C162.847 55.9875 162.079 55.7963 161.462 55.4388L160.961 56.3042C161.762 56.768 162.711 56.9875 163.787 56.9875V55.9875ZM161.454 55.4344C160.848 55.098 160.345 54.6451 159.94 54.0712L159.123 54.6479C159.614 55.3432 160.23 55.8984 160.968 56.3086L161.454 55.4344ZM159.931 54.0595C159.524 53.5171 159.235 52.9063 159.064 52.2222L158.094 52.4648C158.296 53.2741 158.642 54.0072 159.131 54.6595L159.931 54.0595ZM159.063 52.2163C158.887 51.547 158.799 50.8805 158.799 50.2155H157.799C157.799 50.9692 157.898 51.7213 158.096 52.4708L159.063 52.2163ZM158.485 50.6797L158.765 50.5677L158.393 49.6393L158.113 49.7513L158.485 50.6797ZM158.115 50.2892C158.464 51.1624 159.1 51.8122 159.988 52.2349L160.418 51.3321C159.738 51.0081 159.291 50.5379 159.043 49.9178L158.115 50.2892ZM159.98 52.2307C160.882 52.6818 161.913 52.8995 163.059 52.8995V51.8995C162.04 51.8995 161.167 51.7066 160.427 51.3363L159.98 52.2307ZM163.059 52.8995C164.018 52.8995 165.023 52.7198 166.073 52.3699L165.757 51.4212C164.791 51.7432 163.892 51.8995 163.059 51.8995V52.8995ZM166.052 52.3763C167.157 52.0608 168.198 51.5491 169.175 50.8453L168.591 50.0337C167.702 50.674 166.764 51.1329 165.778 51.4147L166.052 52.3763ZM169.168 50.8506C170.188 50.1444 171.121 49.2282 171.969 48.1097L171.173 47.5053C170.379 48.5521 169.52 49.3906 168.599 50.0284L169.168 50.8506ZM171.957 48.1249C172.855 47.0324 173.589 45.7335 174.166 44.235L173.232 43.876C172.689 45.2896 172.005 46.492 171.185 47.4901L171.957 48.1249ZM173.699 43.5555H170.899V44.5555H173.699V43.5555ZM171.368 43.8806L160.56 14.9286L159.623 15.2784L170.431 44.2304L171.368 43.8806ZM160.091 15.6035H166.307V14.6035H160.091V15.6035ZM165.838 15.2777L174.91 39.6937L175.848 39.3454L166.776 14.9294L165.838 15.2777ZM175.847 39.6946L184.975 15.2786L184.039 14.9284L174.911 39.3444L175.847 39.6946ZM184.507 15.6035H185.123V14.6035H184.507V15.6035ZM184.655 14.9285L171.887 49.0885L172.823 49.4386L185.591 15.2786L184.655 14.9285Z" fill="white"/>
</svg>
